<svg width="1280" height="480" viewBox="0 0 1280 480" fill="none" xmlns="http://www.w3.org/2000/svg">
<path fill-rule="evenodd" clip-rule="evenodd" d="M203.983 102C203.983 158.333 158.32 204 101.991 204C45.6631 204 0 158.333 0 102C0 45.667 45.6631 0 101.991 0C158.32 0 203.983 45.667 203.983 102ZM145.978 102C145.978 126.295 126.285 145.991 101.991 145.991C77.6982 145.991 58.0046 126.295 58.0046 102C58.0046 77.7047 77.6982 58.0095 101.991 58.0095C126.285 58.0095 145.978 77.7047 145.978 102Z" fill="#0A0421"/>
<path d="M725.438 207.879C725.599 207.879 725.76 207.879 725.92 207.877V207.886C782.026 208.147 827.428 253.714 827.428 309.885C827.428 366.218 781.764 411.885 725.436 411.885C669.108 411.885 623.445 366.218 623.445 309.885C623.445 309.792 623.445 309.699 623.445 309.605L623.446 309.4H681.452C681.45 309.561 681.449 309.723 681.449 309.885C681.449 334.181 701.143 353.876 725.436 353.876C749.729 353.876 769.423 334.181 769.423 309.885C769.423 285.59 749.729 265.895 725.436 265.895C725.275 265.895 725.114 265.896 724.953 265.897V265.888C668.848 265.627 623.446 220.06 623.446 163.889C623.446 107.556 669.109 61.8889 725.438 61.8889C781.766 61.8889 827.429 107.556 827.429 163.889C827.429 164.051 827.429 164.213 827.428 164.374H769.422C769.424 164.213 769.424 164.051 769.424 163.889C769.424 139.594 749.731 119.898 725.438 119.898C701.144 119.898 681.451 139.594 681.451 163.889C681.451 188.184 701.144 207.879 725.438 207.879Z" fill="#0A0421"/>
<path d="M939.716 145.992C939.877 145.992 940.038 145.992 940.199 145.99V204.008C940.111 204.007 940.024 204.007 939.936 204.006C939.863 204.006 939.79 204.006 939.716 204.006C915.423 204.006 895.729 223.701 895.729 247.996C895.729 272.292 915.423 291.987 939.716 291.987C964.009 291.987 983.703 272.292 983.703 247.996C983.703 247.834 983.702 247.672 983.7 247.511H1041.71C1041.71 247.673 1041.71 247.834 1041.71 247.996C1041.71 304.329 996.044 349.996 939.716 349.996C883.388 349.996 837.725 304.329 837.725 247.996C837.725 219.383 849.505 193.522 868.48 174.999C849.505 156.476 837.725 130.615 837.725 102.002C837.725 45.6688 883.388 0.0018093 939.716 0.0018093C996.044 0.0018093 1041.71 45.6688 1041.71 102.002L1041.71 102.281L1041.71 102.487H983.7C983.702 102.326 983.703 102.164 983.703 102.002C983.703 77.7065 964.009 58.0113 939.716 58.0113C915.423 58.0113 895.729 77.7065 895.729 102.002C895.729 126.297 915.423 145.992 939.716 145.992Z" fill="#0A0421"/>
<path d="M409.166 224.373H409.165V258.207H409.164V316.216H409.165V472.847H467.17V316.906L467.171 316.906V316.216H554.175V258.207H467.171V225.339H467.172C467.17 225.177 467.17 225.015 467.17 224.853C467.17 200.558 486.863 180.863 511.156 180.863C535.45 180.863 555.143 200.558 555.143 224.853C555.143 224.956 555.143 225.058 555.142 225.16L555.141 225.266L555.141 225.339H613.147C613.147 225.177 613.148 225.015 613.148 224.853C613.148 168.52 567.485 122.853 511.156 122.853C454.988 122.853 409.425 168.261 409.166 224.373Z" fill="#0A0421"/>
<path d="M1076.02 130.289H1134.03V227.163C1136.07 249.561 1154.9 267.105 1177.83 267.105C1202.12 267.105 1221.82 247.41 1221.82 223.115C1221.82 222.955 1221.81 222.795 1221.81 222.635H1279.82C1279.82 222.795 1279.82 222.955 1279.82 223.115C1279.82 279.448 1234.16 325.115 1177.83 325.115C1162.15 325.115 1147.3 321.577 1134.03 315.255V378.579C1134.34 402.607 1153.91 421.99 1178.01 421.99C1202.3 421.99 1222 402.295 1222 378C1222 377.838 1221.99 377.676 1221.99 377.514H1280C1280 377.676 1280 377.838 1280 378C1280 434.333 1234.34 480 1178.01 480C1123.23 480 1078.54 436.815 1076.12 382.631H1076.02V378.868C1076.02 378.579 1076.02 378.29 1076.02 378L1076.02 377.755L1076.02 377.589C1076.02 377.437 1076.02 377.284 1076.02 377.132V229.287C1075.9 227.245 1075.84 225.187 1075.84 223.115C1075.84 221.043 1075.9 218.985 1076.02 216.943V130.289Z" fill="#0A0421"/>
<path d="M374.995 221.078V163.069H287.988V130.197H287.99C287.988 130.035 287.987 129.873 287.987 129.711C287.987 105.416 307.681 85.7207 331.974 85.7207C356.267 85.7207 375.961 105.416 375.961 129.711C375.961 129.83 375.96 129.949 375.959 130.068C375.959 130.111 375.958 130.154 375.958 130.197H433.964C433.965 130.092 433.965 129.986 433.965 129.881L433.965 129.711C433.965 73.3782 388.302 27.7112 331.974 27.7112C275.806 27.7112 230.243 73.1179 229.983 129.229H229.981V377.703H287.986V221.763L287.988 221.764V221.078H374.995Z" fill="#0A0421"/>
</svg>
